<svg width="20" height="20" viewBox="0 0 20 20" fill="none" xmlns="http://www.w3.org/2000/svg">
<path d="M16.25 1.25H3.75C3.4043 1.25 3.125 1.5293 3.125 1.875V18.125C3.125 18.4707 3.4043 18.75 3.75 18.75H16.25C16.5957 18.75 16.875 18.4707 16.875 18.125V1.875C16.875 1.5293 16.5957 1.25 16.25 1.25ZM11.1719 2.65625H13.0469V6.75586L12.1387 6.09375L11.1719 6.78516V2.65625ZM15.4688 17.3438H4.53125V2.65625H10V8.45508C10 8.51953 10.0195 8.58398 10.0586 8.63672C10.0823 8.67024 10.1124 8.69872 10.1472 8.72052C10.182 8.74233 10.2208 8.75701 10.2613 8.76373C10.3018 8.77045 10.3432 8.76908 10.3832 8.75968C10.4232 8.75028 10.4609 8.73305 10.4941 8.70898L12.1309 7.53906L13.7207 8.69922C13.7734 8.73828 13.8379 8.75977 13.9043 8.75977C14.0762 8.75977 14.2168 8.61914 14.2168 8.44727V2.65625H15.4668V17.3438H15.4688Z" fill="#21005D"/>
</svg>
