<svg width="26" height="26" viewBox="0 0 26 26" fill="none" xmlns="http://www.w3.org/2000/svg">
<path d="M2.88888 4.33325H23.1111C23.4942 4.33325 23.8616 4.48543 24.1325 4.75632C24.4034 5.02721 24.5555 5.39461 24.5555 5.7777V20.2221C24.5555 20.6052 24.4034 20.9726 24.1325 21.2435C23.8616 21.5144 23.4942 21.6666 23.1111 21.6666H2.88888C2.50578 21.6666 2.13838 21.5144 1.8675 21.2435C1.59661 20.9726 1.44443 20.6052 1.44443 20.2221V5.7777C1.44443 5.39461 1.59661 5.02721 1.8675 4.75632C2.13838 4.48543 2.50578 4.33325 2.88888 4.33325ZM4.0011 20.2221H21.9122L16.8567 14.9933L17.8967 13.9894L23.1111 19.3844V6.87547L14.1339 15.8094C13.8632 16.0784 13.4971 16.2294 13.1155 16.2294C12.7339 16.2294 12.3678 16.0784 12.0972 15.8094L2.88888 6.65159V19.2905L8.20443 13.9749L9.22276 14.9933L4.0011 20.2221ZM22.165 5.7777H4.05888L13.1155 14.7838L22.165 5.7777Z" fill="#21005D"/>
</svg>
