<svg width="20" height="20" viewBox="0 0 20 20" fill="none" xmlns="http://www.w3.org/2000/svg">
<g clip-path="url(#clip0_105_14)">
<path d="M11.4 3.64835C10.9624 3.44104 10.4842 3.3335 10 3.3335C9.51579 3.3335 9.03761 3.44104 8.60001 3.64835L0.476678 7.49668C0.327165 7.56722 0.20201 7.68063 0.11713 7.82249C0.0322505 7.96435 -0.00851749 8.12825 1.14507e-05 8.29335V13.3367C1.14507e-05 13.5577 0.0878088 13.7697 0.244089 13.9259C0.400369 14.0822 0.612331 14.17 0.833345 14.17C1.05436 14.17 1.26632 14.0822 1.4226 13.9259C1.57888 13.7697 1.66668 13.5577 1.66668 13.3367V9.59335L3.33334 10.42V15.0033C3.33337 15.113 3.35502 15.2215 3.39706 15.3228C3.4391 15.424 3.50071 15.516 3.57834 15.5933L3.62001 15.6333L3.72001 15.725C4.24236 16.1905 4.80703 16.6062 5.40668 16.9667C6.52001 17.6367 8.12834 18.3367 10 18.3367C11.8717 18.3367 13.48 17.6367 14.595 16.9667C15.1947 16.6062 15.7593 16.1905 16.2817 15.725L16.3817 15.6333L16.42 15.5933H16.4233C16.5009 15.5156 16.5623 15.4233 16.604 15.3218C16.6458 15.2203 16.6671 15.1115 16.6667 15.0017V10.4183L19.5367 8.99501C19.677 8.92553 19.7949 8.81794 19.8768 8.68455C19.9588 8.55117 20.0015 8.39739 20.0001 8.24084C19.9988 8.08428 19.9533 7.93129 19.869 7.79938C19.7846 7.66747 19.6649 7.56199 19.5233 7.49501L11.4 3.64668V3.64835ZM11.4533 13.0067L15 11.2467V14.6333C14.6047 14.9687 14.1827 15.2713 13.7383 15.5383C12.7717 16.1183 11.4617 16.67 10 16.67C8.53834 16.67 7.23001 16.12 6.26168 15.5383C5.81731 15.2713 5.39537 14.9687 5.00001 14.6333V11.2467L8.54668 13.0067C9.46334 13.46 10.5367 13.46 11.4533 13.0067ZM10.6867 5.15501L17.2567 8.26668L10.7117 11.5133C10.4904 11.6229 10.2469 11.6799 10 11.6799C9.75313 11.6799 9.50958 11.6229 9.28834 11.5133L2.74334 8.26668L9.31334 5.15501C9.52797 5.0533 9.76251 5.00053 10 5.00053C10.2375 5.00053 10.4721 5.0533 10.6867 5.15501ZM16.42 15.595L16.4183 15.5967L16.42 15.595Z" fill="#21005D"/>
</g>
<defs>
<clipPath id="clip0_105_14">
<rect width="20" height="20" fill="white"/>
</clipPath>
</defs>
</svg>
