<svg width="26" height="26" viewBox="0 0 26 26" fill="none" xmlns="http://www.w3.org/2000/svg">
<g clip-path="url(#clip0_73_275)">
<path d="M10.3502 4.59345L6.68524 0.363031C6.26274 -0.124469 5.48815 -0.122303 4.9974 0.369531L1.98357 3.38878C1.08657 4.28686 0.82982 5.62045 1.34874 6.6897C4.44882 13.1084 9.62545 18.2923 16.0398 21.4014C17.108 21.9203 18.4405 21.6635 19.3375 20.7654L22.3795 17.718C22.8724 17.2251 22.8735 16.4462 22.3817 16.0237L18.135 12.3783C17.6908 11.9969 17.0007 12.0468 16.5555 12.4931L15.0778 13.9729C15.0022 14.0522 14.9026 14.1045 14.7944 14.1217C14.6861 14.1389 14.5753 14.1202 14.4787 14.0683C12.0634 12.6774 10.0598 10.6712 8.67207 8.25403C8.6201 8.15734 8.60128 8.04628 8.6185 7.93787C8.63572 7.82946 8.68803 7.72969 8.7674 7.65386L10.2407 6.17945C10.6871 5.73095 10.7358 5.03761 10.3502 4.59236V4.59345Z" stroke="#21005D" stroke-width="2" stroke-linecap="round" stroke-linejoin="round"/>
</g>
<defs>
<clipPath id="clip0_73_275">
<rect width="26" height="26" fill="white"/>
</clipPath>
</defs>
</svg>
