<svg width="26" height="26" viewBox="0 0 26 26" fill="none" xmlns="http://www.w3.org/2000/svg">
<path d="M2.889 4.33325H23.1112C23.4943 4.33325 23.8617 4.48543 24.1326 4.75632C24.4035 5.02721 24.5557 5.39461 24.5557 5.7777V20.2221C24.5557 20.6052 24.4035 20.9726 24.1326 21.2435C23.8617 21.5144 23.4943 21.6666 23.1112 21.6666H2.889C2.50591 21.6666 2.13851 21.5144 1.86762 21.2435C1.59674 20.9726 1.44455 20.6052 1.44455 20.2221V5.7777C1.44455 5.39461 1.59674 5.02721 1.86762 4.75632C2.13851 4.48543 2.50591 4.33325 2.889 4.33325ZM4.00122 20.2221H21.9123L16.8568 14.9933L17.8968 13.9894L23.1112 19.3844V6.87547L14.134 15.8094C13.8634 16.0784 13.4973 16.2294 13.1157 16.2294C12.7341 16.2294 12.368 16.0784 12.0973 15.8094L2.889 6.65159V19.2905L8.20455 13.9749L9.22289 14.9933L4.00122 20.2221ZM22.1651 5.7777H4.059L13.1157 14.7838L22.1651 5.7777Z" fill="#7F67BE"/>
</svg>
