<svg width="26" height="26" viewBox="0 0 26 26" fill="none" xmlns="http://www.w3.org/2000/svg">
<path fill-rule="evenodd" clip-rule="evenodd" d="M13 1.17536C6.44042 1.17536 1.12992 6.66074 1.12992 13.416C1.12992 18.3761 3.99317 22.6445 8.11417 24.5644C8.54533 24.7658 8.96675 24.6859 9.29608 24.4295C9.47822 24.2822 9.62503 24.0932 9.72502 23.8772C9.82501 23.6611 9.87546 23.424 9.87242 23.1844V22.5433L8.40233 22.3363C8.39145 22.3348 8.38061 22.3329 8.36983 22.3307C7.5595 22.1665 7.01242 21.8707 6.61158 21.4444C6.27467 21.0856 6.06883 20.6559 5.89442 20.2915L5.83375 20.1644C5.67255 19.8153 5.49651 19.4738 5.30617 19.1409C5.15992 18.9002 5.04617 18.7765 4.9335 18.6989C4.6475 18.5021 4.37233 18.168 4.37233 17.7507C4.37136 17.6306 4.39612 17.5118 4.44484 17.4029C4.49355 17.2939 4.565 17.1976 4.654 17.1209C4.82198 16.9828 5.03132 16.9103 5.2455 16.9162C5.486 16.9162 5.71242 16.9926 5.90092 17.0804C6.09375 17.1704 6.2855 17.2896 6.46425 17.4133C6.89975 17.7147 7.32875 18.0713 7.69167 18.5111C8.06975 18.9677 8.33733 19.2579 8.74033 19.3175C9.07183 19.367 9.40983 19.3681 9.67308 19.3557C9.70967 19.1393 9.77001 18.928 9.85292 18.7259C9.5314 18.648 9.21423 18.5519 8.90283 18.4379C8.19433 18.177 7.40458 17.771 6.87375 17.1557C6.29092 16.4786 5.93017 15.8747 5.72867 15.1683C5.53258 14.48 5.50008 13.7343 5.50008 12.8165C5.50008 11.4105 6.08617 10.2262 6.526 9.59745C6.35702 9.047 6.23556 8.48202 6.16308 7.90921C6.11508 7.54798 6.11545 7.18158 6.16417 6.82045C6.21833 6.4909 6.35375 6.086 6.71017 5.84193C7.05358 5.6046 7.45658 5.61473 7.77075 5.67546C8.09683 5.73957 8.43592 5.88017 8.74792 6.04101C9.256 6.30195 9.76083 6.65062 10.1389 6.94643C10.7911 6.74735 11.9448 6.4909 12.9881 6.46728H13.0119C14.0563 6.4909 15.158 6.74735 15.7939 6.9453C16.1731 6.65062 16.6768 6.30082 17.1838 6.04101C17.4958 5.88017 17.8338 5.73957 18.161 5.67546C18.4752 5.61473 18.8782 5.6046 19.2227 5.8408C19.578 6.086 19.7145 6.4909 19.7676 6.82045C19.8228 7.1635 19.8098 7.54704 19.7676 7.90921C19.6954 8.48198 19.5743 9.04695 19.4058 9.59745C19.8456 10.2273 20.4317 11.4117 20.4317 12.8165C20.4317 13.7343 20.3992 14.48 20.2042 15.1672C20.0016 15.8758 19.6408 16.4786 19.058 17.1557C18.5272 17.771 17.7374 18.177 17.0289 18.4379C16.6528 18.5752 16.2685 18.6868 15.8784 18.772C16.0117 19.1904 16.0593 19.5289 16.0593 19.7235V23.199C16.0593 23.7276 16.2966 24.1786 16.6335 24.4418C16.9607 24.6994 17.381 24.7793 17.8122 24.5836C21.9722 22.6805 24.869 18.4008 24.869 13.4148C24.869 6.66074 19.5607 1.17536 13 1.17536ZM10.2657 20.4816C9.984 20.5232 10.2646 20.4816 10.2646 20.4816H10.2613L10.2527 20.4839L10.2213 20.4884C10.0603 20.508 9.89883 20.5219 9.737 20.53C9.35144 20.5508 8.96485 20.5346 8.58217 20.4816C7.72525 20.3556 7.20417 19.7258 6.86725 19.3164L6.83475 19.2781C6.72459 19.1455 6.60626 19.0204 6.4805 18.9036C6.59208 19.1173 6.708 19.3557 6.83258 19.6122L6.84342 19.6347L6.89867 19.7516C7.08825 20.1431 7.21283 20.404 7.41975 20.6222C7.62125 20.8359 7.93542 21.0429 8.57025 21.1733L10.5138 21.4466C10.6495 21.4657 10.7739 21.5353 10.864 21.6424C10.9541 21.7496 11.0036 21.887 11.0034 22.0293V23.1844C11.0034 24.0842 10.5972 24.8861 9.97425 25.372C9.6472 25.6315 9.25815 25.7933 8.84903 25.8401C8.43991 25.8868 8.02626 25.8168 7.65267 25.6374C3.14383 23.5375 0 18.862 0 13.416C0 6.00164 5.82508 0 13 0C20.1749 0 26 6.00164 26 13.416C26 18.8901 22.8161 23.578 18.2683 25.6599C17.8944 25.8359 17.4814 25.903 17.0736 25.854C16.6658 25.8051 16.2785 25.642 15.9532 25.3821C15.6314 25.125 15.3715 24.7939 15.1937 24.415C15.0159 24.036 14.925 23.6194 14.9283 23.1979V19.7224C14.9283 19.6437 14.8753 19.1893 14.5795 18.5785C14.5387 18.4939 14.5181 18.4002 14.5195 18.3055C14.521 18.2108 14.5444 18.1179 14.5877 18.0346C14.6311 17.9513 14.6932 17.88 14.7687 17.8269C14.8442 17.7738 14.9309 17.7403 15.0215 17.7294C15.5769 17.6571 16.1232 17.5228 16.6508 17.3289C17.2943 17.0928 17.8717 16.7688 18.2152 16.3707C18.7254 15.779 18.98 15.3247 19.1198 14.8331C19.2649 14.3236 19.3018 13.7309 19.3018 12.8165C19.3018 11.5331 18.6518 10.4545 18.3528 10.107C18.2849 10.0284 18.2386 9.93236 18.2188 9.82887C18.199 9.72537 18.2063 9.61825 18.2401 9.51872C18.4327 8.95204 18.5688 8.36636 18.6463 7.77086C18.681 7.46156 18.6832 7.20287 18.6528 7.01616C18.646 6.9479 18.6262 6.88173 18.5943 6.82158C18.5198 6.80818 18.4433 6.81163 18.3701 6.8317C18.1859 6.86769 17.9508 6.95767 17.6843 7.09489C17.1535 7.36708 16.601 7.76974 16.2587 8.05767C16.1832 8.12127 16.0931 8.16349 15.9972 8.18024C15.9014 8.197 15.803 8.18771 15.7116 8.15328C14.8344 7.85539 13.9221 7.68395 13 7.64377C11.9091 7.67076 10.6503 7.99244 10.2202 8.15328C10.1288 8.18771 10.0304 8.197 9.9345 8.18024C9.83864 8.16349 9.74858 8.12127 9.67308 8.05767C9.23037 7.68763 8.75271 7.36506 8.24742 7.09489C8.03044 6.97659 7.79956 6.88812 7.56058 6.8317C7.48775 6.81179 7.41165 6.80834 7.33742 6.82158C7.30557 6.88172 7.28568 6.94789 7.27892 7.01616C7.24858 7.20287 7.25075 7.46156 7.28542 7.77086C7.36349 8.36626 7.4996 8.95188 7.69167 9.51872C7.75992 9.72117 7.71767 9.94612 7.579 10.107C7.28 10.4545 6.63 11.5331 6.63 12.8165C6.63 13.7298 6.66683 14.3236 6.812 14.8331C6.95283 15.3247 7.20633 15.7779 7.7155 16.3707C8.06 16.7688 8.63633 17.0928 9.28092 17.3289C9.80825 17.5227 10.3541 17.6569 10.9092 17.7294C11.0234 17.7421 11.1311 17.7906 11.2181 17.8685C11.3051 17.9463 11.3672 18.0498 11.3961 18.1652C11.425 18.2806 11.4194 18.4024 11.38 18.5144C11.3407 18.6264 11.2694 18.7233 11.1757 18.7922C10.9969 18.925 10.8788 19.1634 10.8127 19.439C10.7786 19.5808 10.7583 19.7259 10.7521 19.872V19.8934C10.7535 20.036 10.7049 20.1742 10.6154 20.2825C10.5259 20.3907 10.4016 20.4614 10.2657 20.4816Z" fill="#7F67BE"/>
</svg>
