<svg width="20" height="20" viewBox="0 0 20 20" fill="none" xmlns="http://www.w3.org/2000/svg">
<g clip-path="url(#clip0_105_16)">
<path d="M11.3999 3.64835C10.9623 3.44104 10.4841 3.3335 9.99989 3.3335C9.51567 3.3335 9.03749 3.44104 8.59989 3.64835L0.476556 7.49668C0.327043 7.56722 0.201888 7.68063 0.117008 7.82249C0.0321284 7.96435 -0.00863956 8.12825 -0.00011062 8.29335V13.3367C-0.00011062 13.5577 0.0876868 13.7697 0.243967 13.9259C0.400247 14.0822 0.612209 14.17 0.833223 14.17C1.05424 14.17 1.2662 14.0822 1.42248 13.9259C1.57876 13.7697 1.66656 13.5577 1.66656 13.3367V9.59335L3.33322 10.42V15.0033C3.33325 15.113 3.3549 15.2215 3.39694 15.3228C3.43898 15.424 3.50059 15.516 3.57822 15.5933L3.61989 15.6333L3.71989 15.725C4.24224 16.1905 4.80691 16.6062 5.40656 16.9667C6.51989 17.6367 8.12822 18.3367 9.99989 18.3367C11.8716 18.3367 13.4799 17.6367 14.5949 16.9667C15.1945 16.6062 15.7592 16.1905 16.2816 15.725L16.3816 15.6333L16.4199 15.5933H16.4232C16.5008 15.5156 16.5622 15.4233 16.6039 15.3218C16.6457 15.2203 16.667 15.1115 16.6666 15.0017V10.4183L19.5366 8.99501C19.6769 8.92553 19.7947 8.81794 19.8767 8.68455C19.9587 8.55117 20.0014 8.39739 20 8.24084C19.9986 8.08428 19.9532 7.93129 19.8688 7.79938C19.7845 7.66747 19.6647 7.56199 19.5232 7.49501L11.3999 3.64668V3.64835ZM11.4532 13.0067L14.9999 11.2467V14.6333C14.6045 14.9687 14.1826 15.2713 13.7382 15.5383C12.7716 16.1183 11.4616 16.67 9.99989 16.67C8.53822 16.67 7.22989 16.12 6.26156 15.5383C5.81719 15.2713 5.39524 14.9687 4.99989 14.6333V11.2467L8.54656 13.0067C9.46322 13.46 10.5366 13.46 11.4532 13.0067ZM10.6866 5.15501L17.2566 8.26668L10.7116 11.5133C10.4903 11.6229 10.2468 11.6799 9.99989 11.6799C9.753 11.6799 9.50945 11.6229 9.28822 11.5133L2.74322 8.26668L9.31322 5.15501C9.52784 5.0533 9.76238 5.00053 9.99989 5.00053C10.2374 5.00053 10.4719 5.0533 10.6866 5.15501ZM16.4199 15.595L16.4182 15.5967L16.4199 15.595Z" fill="#7F67BE"/>
</g>
<defs>
<clipPath id="clip0_105_16">
<rect width="20" height="20" fill="white"/>
</clipPath>
</defs>
</svg>
