<svg width="174" height="38" viewBox="0 0 174 38" fill="none" xmlns="http://www.w3.org/2000/svg">
<path d="M16.7671 4.74399C14.6551 4.74399 12.7511 5.11199 11.0551 5.84799C9.39108 6.55199 7.98307 7.57599 6.83107 8.91999C5.67907 10.232 4.79907 11.816 4.19107 13.672C3.58307 15.496 3.27907 17.528 3.27907 19.768C3.27907 22.84 3.75907 25.528 4.71907 27.832C5.67907 30.104 7.11907 31.864 9.03907 33.112C10.9911 34.36 13.4071 34.984 16.2871 34.984C17.9511 34.984 19.4871 34.856 20.8951 34.6C22.3031 34.344 23.5991 34.024 24.7831 33.64V36.04C23.6311 36.488 22.3351 36.84 20.8951 37.096C19.4871 37.352 17.8391 37.48 15.9511 37.48C12.5271 37.48 9.64707 36.744 7.31107 35.272C5.00707 33.8 3.26307 31.736 2.07907 29.08C0.927074 26.424 0.351074 23.32 0.351074 19.768C0.351074 17.24 0.719074 14.904 1.45507 12.76C2.19107 10.616 3.26307 8.75999 4.67107 7.19199C6.07907 5.62399 7.79107 4.40799 9.80707 3.54399C11.8551 2.67999 14.1911 2.24799 16.8151 2.24799C18.4471 2.24799 20.0151 2.40799 21.5191 2.72799C23.0551 3.04799 24.4791 3.51199 25.7911 4.11999L24.6871 6.56799C23.4711 5.95999 22.1911 5.51199 20.8471 5.22399C19.5351 4.90399 18.1751 4.74399 16.7671 4.74399Z" fill="#FFFBFE"/>
<path d="M40.5293 11.032C43.4093 11.032 45.5533 11.736 46.9613 13.144C48.3693 14.552 49.0733 16.792 49.0733 19.864V37H47.0093L46.5293 32.68H46.3853C45.7773 33.64 45.0733 34.488 44.2733 35.224C43.5053 35.928 42.5613 36.488 41.4413 36.904C40.3533 37.288 39.0093 37.48 37.4093 37.48C35.8093 37.48 34.4173 37.208 33.2333 36.664C32.0493 36.088 31.1373 35.272 30.4973 34.216C29.8573 33.16 29.5373 31.864 29.5373 30.328C29.5373 27.8 30.5773 25.88 32.6573 24.568C34.7373 23.224 37.7613 22.456 41.7293 22.264L46.3853 22.072V20.248C46.3853 17.72 45.8733 15.944 44.8493 14.92C43.8573 13.864 42.3693 13.336 40.3853 13.336C39.0733 13.336 37.8093 13.512 36.5933 13.864C35.4093 14.184 34.2093 14.648 32.9933 15.256L32.1293 13.096C33.3133 12.488 34.6253 11.992 36.0653 11.608C37.5053 11.224 38.9933 11.032 40.5293 11.032ZM42.0173 24.28C38.7853 24.44 36.3693 25.016 34.7693 26.008C33.1693 26.968 32.3693 28.424 32.3693 30.376C32.3693 31.944 32.8653 33.144 33.8573 33.976C34.8493 34.776 36.1933 35.176 37.8893 35.176C40.6093 35.176 42.6893 34.424 44.1293 32.92C45.6013 31.416 46.3533 29.304 46.3853 26.584V24.088L42.0173 24.28Z" fill="#FFFBFE"/>
<path d="M67.7037 11.032C68.3437 11.032 68.9517 11.08 69.5277 11.176C70.1357 11.24 70.6797 11.336 71.1597 11.464L70.7757 13.96C70.2637 13.832 69.7517 13.736 69.2397 13.672C68.7277 13.576 68.1677 13.528 67.5597 13.528C66.4077 13.528 65.3677 13.752 64.4397 14.2C63.5117 14.648 62.7117 15.288 62.0397 16.12C61.3677 16.952 60.8557 17.944 60.5037 19.096C60.1517 20.248 59.9757 21.544 59.9757 22.984V37H57.2397V11.464H59.5437L59.8317 16.264H59.9757C60.3917 15.272 60.9517 14.392 61.6557 13.624C62.3917 12.824 63.2717 12.2 64.2957 11.752C65.3197 11.272 66.4557 11.032 67.7037 11.032Z" fill="#FFFBFE"/>
<path d="M96.5528 24.232C96.5528 26.216 96.2968 28.024 95.7848 29.656C95.3048 31.256 94.5688 32.648 93.5768 33.832C92.6168 34.984 91.4168 35.88 89.9768 36.52C88.5368 37.16 86.8888 37.48 85.0328 37.48C83.2728 37.48 81.6888 37.176 80.2808 36.568C78.9048 35.928 77.7208 35.032 76.7288 33.88C75.7368 32.696 74.9848 31.288 74.4728 29.656C73.9608 28.024 73.7048 26.216 73.7048 24.232C73.7048 21.448 74.1528 19.08 75.0488 17.128C75.9768 15.144 77.3048 13.624 79.0328 12.568C80.7928 11.512 82.8728 10.984 85.2728 10.984C87.7048 10.984 89.7528 11.544 91.4168 12.664C93.1128 13.752 94.3928 15.288 95.2568 17.272C96.1208 19.256 96.5528 21.576 96.5528 24.232ZM76.5368 24.232C76.5368 26.408 76.8408 28.328 77.4488 29.992C78.0568 31.624 79.0008 32.888 80.2808 33.784C81.5608 34.68 83.1608 35.128 85.0808 35.128C87.0648 35.128 88.6968 34.68 89.9768 33.784C91.2568 32.856 92.2008 31.576 92.8088 29.944C93.4168 28.28 93.7208 26.376 93.7208 24.232C93.7208 22.088 93.4328 20.2 92.8568 18.568C92.2808 16.936 91.3688 15.656 90.1208 14.728C88.8728 13.8 87.2408 13.336 85.2248 13.336C82.3128 13.336 80.1368 14.296 78.6968 16.216C77.2568 18.136 76.5368 20.808 76.5368 24.232Z" fill="#FFFBFE"/>
<path d="M106.241 37H103.505V0.519989H106.241V37Z" fill="#FFFBFE"/>
<path d="M117.35 11.464V37H114.662V11.464H117.35ZM116.006 2.00799C116.614 2.00799 117.078 2.19999 117.398 2.58399C117.718 2.93599 117.878 3.43199 117.878 4.07199C117.878 4.74399 117.718 5.27199 117.398 5.65599C117.078 6.00799 116.614 6.18399 116.006 6.18399C115.43 6.18399 114.982 6.00799 114.662 5.65599C114.342 5.27199 114.182 4.74399 114.182 4.07199C114.182 3.43199 114.342 2.93599 114.662 2.58399C114.982 2.19999 115.43 2.00799 116.006 2.00799Z" fill="#FFFBFE"/>
<path d="M137.242 10.984C140.154 10.984 142.378 11.736 143.914 13.24C145.45 14.744 146.218 17.112 146.218 20.344V37H143.53V20.488C143.53 18.024 142.97 16.216 141.85 15.064C140.73 13.912 139.082 13.336 136.906 13.336C134.122 13.336 132.026 14.152 130.618 15.784C129.21 17.416 128.506 19.848 128.506 23.08V37H125.818V11.464H127.978L128.41 15.88H128.554C129.034 14.952 129.674 14.12 130.474 13.384C131.274 12.648 132.234 12.072 133.354 11.656C134.506 11.208 135.802 10.984 137.242 10.984Z" fill="#FFFBFE"/>
<path d="M164.013 10.984C166.221 10.984 168.045 11.496 169.485 12.52C170.957 13.512 172.061 14.888 172.797 16.648C173.565 18.408 173.949 20.44 173.949 22.744V24.568H155.709C155.709 27.992 156.493 30.6 158.061 32.392C159.661 34.184 161.917 35.08 164.829 35.08C166.429 35.08 167.821 34.952 169.005 34.696C170.189 34.44 171.485 33.992 172.893 33.352V35.848C171.613 36.424 170.349 36.84 169.101 37.096C167.853 37.352 166.397 37.48 164.733 37.48C162.205 37.48 160.045 36.952 158.253 35.896C156.493 34.84 155.149 33.336 154.221 31.384C153.325 29.4 152.877 27.096 152.877 24.472C152.877 21.848 153.309 19.528 154.173 17.512C155.037 15.496 156.301 13.912 157.965 12.76C159.629 11.576 161.645 10.984 164.013 10.984ZM164.013 13.288C161.645 13.288 159.741 14.072 158.301 15.64C156.861 17.176 156.013 19.4 155.757 22.312H171.117C171.117 20.52 170.861 18.952 170.349 17.608C169.837 16.264 169.053 15.208 167.997 14.44C166.973 13.672 165.645 13.288 164.013 13.288Z" fill="#FFFBFE"/>
</svg>
