<svg width="26" height="26" viewBox="0 0 26 26" fill="none" xmlns="http://www.w3.org/2000/svg">
<g clip-path="url(#clip0_67_121)">
<path d="M10.3501 4.59345L6.68518 0.363031C6.26268 -0.124469 5.48809 -0.122303 4.99734 0.369531L1.98351 3.38878C1.08651 4.28686 0.829759 5.62045 1.34868 6.6897C4.44876 13.1084 9.62539 18.2923 16.0398 21.4014C17.1079 21.9203 18.4404 21.6635 19.3374 20.7654L22.3794 17.718C22.8723 17.2251 22.8734 16.4462 22.3816 16.0237L18.1349 12.3783C17.6908 11.9969 17.0007 12.0468 16.5554 12.4931L15.0778 13.9729C15.0021 14.0522 14.9025 14.1045 14.7943 14.1217C14.6861 14.1389 14.5752 14.1202 14.4787 14.0683C12.0633 12.6774 10.0598 10.6712 8.67201 8.25403C8.62004 8.15734 8.60122 8.04628 8.61844 7.93787C8.63566 7.82946 8.68797 7.72969 8.76734 7.65386L10.2407 6.17945C10.687 5.73095 10.7358 5.03761 10.3501 4.59236V4.59345Z" stroke="#7F67BE" stroke-width="2" stroke-linecap="round" stroke-linejoin="round"/>
</g>
<defs>
<clipPath id="clip0_67_121">
<rect width="26" height="26" fill="white"/>
</clipPath>
</defs>
</svg>
